<svg viewBox="0 0 154 42" fill="none" xmlns="http://www.w3.org/2000/svg">
<path d="M126.679 41.048V9.024H134.695L134.839 14.448L134.215 15.208C134.855 13.352 135.879 10.928 137.287 9.936C138.727 8.944 140.423 8.448 142.375 8.448C144.711 8.448 146.679 9.04 148.279 10.224C149.879 11.376 151.095 12.976 151.927 15.024C152.759 17.04 153.175 19.344 153.175 21.936C153.175 24.496 152.743 26.8 151.879 28.848C151.047 30.896 149.815 32.512 148.183 33.696C146.583 34.848 144.615 35.424 142.279 35.424C141.031 35.424 139.863 35.2 138.775 34.752C137.719 34.272 136.791 33.616 135.991 32.784C135.223 31.92 134.663 29.91 134.311 28.758L134.935 29.472V41.048H126.679ZM139.783 29.328C141.287 29.328 142.471 28.672 143.335 27.36C144.231 26.016 144.679 24.208 144.679 21.936C144.679 19.664 144.231 17.872 143.335 16.56C142.471 15.216 141.287 14.544 139.783 14.544C138.759 14.544 137.879 14.832 137.143 15.408C136.439 15.952 135.895 16.768 135.511 17.856C135.127 18.944 134.935 20.304 134.935 21.936C134.935 23.568 135.127 24.928 135.511 26.016C135.895 27.104 136.439 27.936 137.143 28.512C137.879 29.056 138.759 29.328 139.783 29.328Z" fill="#5B6CCF"/>
<path d="M110.26 35.424C107.54 35.424 105.156 34.864 103.108 33.744C101.092 32.624 99.5085 31.056 98.3565 29.04C97.2365 27.024 96.6765 24.656 96.6765 21.936C96.6765 19.216 97.2365 16.848 98.3565 14.832C99.5085 12.816 101.092 11.248 103.108 10.128C105.156 9.008 107.54 8.448 110.26 8.448C112.98 8.448 115.348 9.008 117.364 10.128C119.38 11.248 120.948 12.816 122.068 14.832C123.22 16.848 123.796 19.216 123.796 21.936C123.796 24.656 123.22 27.024 122.068 29.04C120.948 31.056 119.38 32.624 117.364 33.744C115.348 34.864 112.98 35.424 110.26 35.424ZM110.26 29.328C111.86 29.328 113.092 28.688 113.956 27.408C114.852 26.128 115.3 24.304 115.3 21.936C115.3 19.6 114.852 17.792 113.956 16.512C113.092 15.2 111.86 14.544 110.26 14.544C108.628 14.544 107.364 15.2 106.468 16.512C105.604 17.792 105.172 19.6 105.172 21.936C105.172 24.304 105.604 26.128 106.468 27.408C107.364 28.688 108.628 29.328 110.26 29.328Z" fill="#5B6CCF"/>
<path d="M91.2341 34.848C88.9301 34.848 87.1381 34.272 85.8581 33.12C84.5781 31.968 83.9381 30.096 83.9381 27.504V0.767975H92.1941V26.592C92.1941 27.424 92.3861 28.016 92.7701 28.368C93.1541 28.72 93.6981 28.896 94.4021 28.896H95.9861V34.848H91.2341Z" fill="#5B6CCF"/>
<path d="M67.7509 35.424C65.0629 35.424 62.7109 34.864 60.6949 33.744C58.6789 32.624 57.1109 31.056 55.9909 29.04C54.8709 27.024 54.3109 24.656 54.3109 21.936C54.3109 19.216 54.8709 16.864 55.9909 14.88C57.1109 12.864 58.6629 11.296 60.6469 10.176C62.6629 9.024 65.0149 8.448 67.7029 8.448C70.3909 8.448 72.7109 9.024 74.6629 10.176C76.6469 11.296 78.1669 12.912 79.2229 15.024C80.2789 17.136 80.8069 19.648 80.8069 22.56V24.096H62.8549C62.9509 25.888 63.4469 27.232 64.3429 28.128C65.2709 28.992 66.4549 29.424 67.8949 29.424C68.9829 29.424 69.8949 29.216 70.6309 28.8C71.3669 28.352 71.8949 27.632 72.2149 26.64L80.4709 27.12C79.7669 29.808 78.2789 31.872 76.0069 33.312C73.7349 34.72 70.9829 35.424 67.7509 35.424ZM62.8549 19.392H72.4549C72.3909 17.696 71.9269 16.432 71.0629 15.6C70.1989 14.736 69.0789 14.304 67.7029 14.304C66.3909 14.304 65.2869 14.752 64.3909 15.648C63.5269 16.544 63.0149 17.792 62.8549 19.392Z" fill="#5B6CCF"/>
<path d="M37.5881 34.848V9.02399H45.5081L45.7961 16.848L45.1721 17.748C45.6201 14.996 46.3721 12.032 47.4281 10.848C48.4841 9.63199 49.9561 9.02399 51.8441 9.02399H54.1001V15.696H51.7961C50.4201 15.696 49.3001 15.856 48.4361 16.176C47.5721 16.496 46.9161 17.024 46.4681 17.76C46.0521 18.464 45.8441 19.44 45.8441 20.688V34.848H37.5881Z" fill="#5B6CCF"/>
<path d="M16.944 35.616C13.424 35.616 10.384 34.896 7.824 33.456C5.296 32.016 3.36 29.968 2.016 27.312C0.672 24.656 0 21.504 0 17.856C0 14.208 0.672 11.056 2.016 8.4C3.36 5.712 5.296 3.648 7.824 2.208C10.384 0.736 13.424 0 16.944 0C20.496 0 23.52 0.736 26.016 2.208C28.544 3.648 30.48 5.712 31.824 8.4C33.2 11.056 33.888 14.208 33.888 17.856C33.888 21.504 33.2 24.656 31.824 27.312C30.48 29.968 28.544 32.016 26.016 33.456C23.52 34.896 20.496 35.616 16.944 35.616ZM16.944 28.8C18.704 28.8 20.192 28.368 21.408 27.504C22.656 26.64 23.616 25.392 24.288 23.76C24.96 22.128 25.296 20.16 25.296 17.856C25.296 15.552 24.96 13.584 24.288 11.952C23.616 10.288 22.656 9.024 21.408 8.16C20.16 7.264 18.656 6.816 16.896 6.816C15.168 6.816 13.68 7.264 12.432 8.16C11.184 9.024 10.224 10.288 9.552 11.952C8.912 13.584 8.592 15.552 8.592 17.856C8.592 20.16 8.912 22.128 9.552 23.76C10.224 25.392 11.184 26.64 12.432 27.504C13.68 28.368 15.184 28.8 16.944 28.8Z" fill="#5B6CCF"/>
</svg>
