<svg width="128" height="128" viewBox="0 0 128 128" fill="none" xmlns="http://www.w3.org/2000/svg">
<path d="M128 96C128 113.673 113.673 128 96 128H32C14.3269 128 0 113.673 0 96V32C0 14.3269 14.3269 0 32 0H96C113.673 0 128 14.3269 128 32V96ZM64 16C54.6517 16 46.5781 17.9836 39.7793 21.9512C33.0654 25.8326 27.9239 31.3964 24.3545 38.6416C20.7851 45.8005 19.0001 54.2962 19 64.1289C19 73.9618 20.7851 82.4582 24.3545 89.6172C27.9239 96.7762 33.0654 102.296 39.7793 106.178C46.5781 110.059 54.6516 112 64 112C73.4334 112 81.4649 110.059 88.0938 106.178C94.8075 102.296 99.9492 96.7761 103.519 89.6172C107.173 82.4582 109 73.9617 109 64.1289C109 54.2963 107.173 45.8005 103.519 38.6416C99.9492 31.3963 94.8076 25.8326 88.0938 21.9512C81.4649 17.9835 73.4334 16 64 16ZM63.8721 34.3721C68.5462 34.3721 72.5411 35.5792 75.8555 37.9941C79.1699 40.323 81.7192 43.7306 83.5039 48.2158C85.2885 52.6146 86.1816 57.9189 86.1816 64.1289C86.1816 70.3391 85.2886 75.644 83.5039 80.043C81.7192 84.4419 79.1699 87.8059 75.8555 90.1348C72.626 92.4636 68.6742 93.6279 64 93.6279C59.3258 93.6279 55.331 92.4636 52.0166 90.1348C48.7023 87.8059 46.1528 84.4418 44.3682 80.043C42.6685 75.6441 41.8184 70.3391 41.8184 64.1289C41.8184 57.919 42.6685 52.6146 44.3682 48.2158C46.1529 43.7307 48.7022 40.323 52.0166 37.9941C55.3309 35.5791 59.283 34.3721 63.8721 34.3721Z" fill="#5B6CCF"/>
</svg>
